# xmcd CD database file
#
# Track frame offsets:
#	150
#	20765
#	40847
#
# Disc length: 817 seconds
#
# Revision: 0
# Processed by: cddbd v1.5PL3 Copyright (c) Steve Scherf et al.
# Submitted via: CDex 1.51
#
DISCID=1e032f03
DTITLE=藤重政孝 - FOREVER
DYEAR=1900
DGENRE=J-POP
TTITLE0=FOREVER
TTITLE1=駆け抜けたTeenage-Blue
TTITLE2=FOREVER（オリジナルカラオケ）
EXTD=
EXTT0=
EXTT1=
EXTT2=
PLAYORDER=
